<?xml version="1.0" encoding="UTF-8" standalone="no"?><!-- Generator: Gravit.io --><svg xmlns="http://www.w3.org/2000/svg" xmlns:xlink="http://www.w3.org/1999/xlink" style="isolation:isolate" viewBox="0 0 96 96" width="96pt" height="96pt"><defs><clipPath id="_clipPath_UDwsW1cc5o3Xr185qA72uXzcSvrxids5"><rect width="96" height="96"/></clipPath></defs><g clip-path="url(#_clipPath_UDwsW1cc5o3Xr185qA72uXzcSvrxids5)"><g><g><rect x="9.294" y="13.87" width="77.017" height="61.083" transform="matrix(1,0,0,1,0,0)" fill="none"/><clipPath id="_clipPath_sp8mLssHQIkYSvHsrQAxfrkt76RL9e27"><rect x="9.294" y="13.87" width="77.017" height="61.083" transform="matrix(1,0,0,1,0,0)" fill="rgb(255,255,255)"/></clipPath><g clip-path="url(#_clipPath_sp8mLssHQIkYSvHsrQAxfrkt76RL9e27)"><mask id="_mask_6dlH4YcLa5po54OaJ7mcW8LF3KbE1AZe"><rect x="9.294" y="13.87" width="77.017" height="61.083" fill="white" stroke="none"/></mask><rect x="9.294" y="13.87" width="77.017" height="61.083" transform="matrix(1,0,0,1,0,0)" fill="none"/><rect x="9.294" y="13.87" width="77.017" height="61.083" transform="matrix(1,0,0,1,0,0)" fill="none" mask="url(#_mask_6dlH4YcLa5po54OaJ7mcW8LF3KbE1AZe)" vector-effect="non-scaling-stroke" stroke-width="2" stroke="rgb(255,255,255)" stroke-opacity="100" stroke-linejoin="miter" stroke-linecap="square" stroke-miterlimit="2"/></g><mask id="_mask_vVL83SFw2UiU8V5Pd7FVtWTYolMaR7Ct" x="-200%" y="-200%" width="400%" height="400%"><rect x="-200%" y="-200%" width="400%" height="400%" style="fill:white;"/><line x1="10.622" y1="25.822" x2="84.986" y2="25.822" fill="black" stroke="none"/></mask><line x1="10.622" y1="25.822" x2="84.986" y2="25.822" mask="url(#_mask_vVL83SFw2UiU8V5Pd7FVtWTYolMaR7Ct)" vector-effect="non-scaling-stroke" stroke-width="2" stroke="rgb(255,255,255)" stroke-opacity="100" stroke-linejoin="miter" stroke-linecap="square" stroke-miterlimit="3"/><mask id="_mask_C460iI6d5Qg8W4OEBQDuQYGZP7A6i20l" x="-200%" y="-200%" width="400%" height="400%"><rect x="-200%" y="-200%" width="400%" height="400%" style="fill:white;"/><line x1="39.836" y1="36.445" x2="65.067" y2="36.445" fill="black" stroke="none"/></mask><line x1="39.836" y1="36.445" x2="65.067" y2="36.445" mask="url(#_mask_C460iI6d5Qg8W4OEBQDuQYGZP7A6i20l)" vector-effect="non-scaling-stroke" stroke-width="2" stroke="rgb(255,255,255)" stroke-opacity="100" stroke-linejoin="miter" stroke-linecap="square" stroke-miterlimit="3"/><mask id="_mask_ruXchqCnus1Yk6tt5XZgJcJBmK0EjnR5" x="-200%" y="-200%" width="400%" height="400%"><rect x="-200%" y="-200%" width="400%" height="400%" style="fill:white;"/><line x1="27.886" y1="36.445" x2="14.606" y2="36.445" fill="black" stroke="none"/></mask><line x1="27.886" y1="36.445" x2="14.606" y2="36.445" mask="url(#_mask_ruXchqCnus1Yk6tt5XZgJcJBmK0EjnR5)" vector-effect="non-scaling-stroke" stroke-width="2" stroke="rgb(255,255,255)" stroke-opacity="100" stroke-linejoin="miter" stroke-linecap="square" stroke-miterlimit="3"/><mask id="_mask_ONEeddnjjEfg0BanIayGsjGO8WGz4bRX" x="-200%" y="-200%" width="400%" height="400%"><rect x="-200%" y="-200%" width="400%" height="400%" style="fill:white;"/><line x1="14.606" y1="48.397" x2="41.164" y2="48.397" fill="black" stroke="none"/></mask><line x1="14.606" y1="48.397" x2="41.164" y2="48.397" mask="url(#_mask_ONEeddnjjEfg0BanIayGsjGO8WGz4bRX)" vector-effect="non-scaling-stroke" stroke-width="2" stroke="rgb(255,255,255)" stroke-opacity="100" stroke-linejoin="miter" stroke-linecap="square" stroke-miterlimit="3"/><mask id="_mask_x9WSoduseHAOGJuUm7HplQj9GaZ8ksgk" x="-200%" y="-200%" width="400%" height="400%"><rect x="-200%" y="-200%" width="400%" height="400%" style="fill:white;"/><line x1="51.789" y1="48.397" x2="69.05" y2="48.397" fill="black" stroke="none"/></mask><line x1="51.789" y1="48.397" x2="69.05" y2="48.397" mask="url(#_mask_x9WSoduseHAOGJuUm7HplQj9GaZ8ksgk)" vector-effect="non-scaling-stroke" stroke-width="2" stroke="rgb(255,255,255)" stroke-opacity="100" stroke-linejoin="miter" stroke-linecap="square" stroke-miterlimit="3"/><rect x="0" y="29.806" width="9.294" height="9.294" transform="matrix(1,0,0,1,0,0)" fill="rgb(235,235,235)"/><rect x="86.314" y="29.806" width="9.294" height="9.294" transform="matrix(1,0,0,1,0,0)" fill="rgb(235,235,235)"/></g></g></g></svg>